<svg width="36" height="36" viewBox="0 0 36 36" fill="none" xmlns="http://www.w3.org/2000/svg">
<rect x="0.5" y="0.5" width="35" height="35" rx="1.5" fill="white"/>
<path fill-rule="evenodd" clip-rule="evenodd" d="M20.25 11.25C20.25 12.4926 19.2426 13.5 18 13.5C16.7574 13.5 15.75 12.4926 15.75 11.25C15.75 10.0074 16.7574 9 18 9C19.2426 9 20.25 10.0074 20.25 11.25ZM20.25 18C20.25 19.2426 19.2426 20.25 18 20.25C16.7574 20.25 15.75 19.2426 15.75 18C15.75 16.7574 16.7574 15.75 18 15.75C19.2426 15.75 20.25 16.7574 20.25 18ZM18 27C19.2426 27 20.25 25.9926 20.25 24.75C20.25 23.5074 19.2426 22.5 18 22.5C16.7574 22.5 15.75 23.5074 15.75 24.75C15.75 25.9926 16.7574 27 18 27Z" fill="#000000"/>
<rect x="0.5" y="0.5" width="35" height="35" rx="1.5" stroke="#dae1e6"/>
</svg>
