<svg width="28" height="32" viewBox="0 0 28 32" fill="none" xmlns="http://www.w3.org/2000/svg">
<path d="M16.5066 6.44045C16.5065 7.87186 17.0664 9.24652 18.0666 10.2704L15.6466 14.4704L11.0466 14.4704C10.6846 13.1933 9.87281 12.0901 8.7611 11.3646C7.6494 10.639 6.31279 10.3401 4.99792 10.5228C3.68304 10.7056 2.47864 11.3578 1.60695 12.359C0.735269 13.3602 0.255126 14.6429 0.255126 15.9704C0.255126 17.298 0.735269 18.5807 1.60695 19.5819C2.47864 20.5831 3.68304 21.2353 4.99792 21.4181C6.31279 21.6008 7.6494 21.3019 8.7611 20.5763C9.87281 19.8508 10.6846 18.7476 11.0466 17.4704L15.6466 17.4704L18.0666 21.6704C17.1274 22.6309 16.5677 23.899 16.491 25.2402C16.4143 26.5814 16.8258 27.905 17.6494 28.9663C18.473 30.0276 19.653 30.7549 20.9712 31.0136C22.2895 31.2723 23.6568 31.045 24.8204 30.3737C25.984 29.7023 26.8652 28.6324 27.3011 27.3617C27.737 26.091 27.6981 24.7055 27.1916 23.4612C26.685 22.217 25.7451 21.1982 24.5457 20.5933C23.3462 19.9884 21.9683 19.8381 20.6666 20.1704L18.2566 15.9704L20.6666 11.8004C21.7778 12.0796 22.9484 12.0047 24.015 11.5864C25.0815 11.168 25.9908 10.4271 26.6159 9.46691C27.241 8.50676 27.5506 7.37538 27.5016 6.23074C27.4525 5.0861 27.0473 3.98535 26.3424 3.08219C25.6375 2.17903 24.6681 1.51854 23.5696 1.19295C22.4712 0.86736 21.2985 0.892926 20.2153 1.26608C19.1321 1.63923 18.1924 2.34134 17.5275 3.27436C16.8627 4.20739 16.5057 5.32476 16.5066 6.47045L16.5066 6.44045Z" fill="#E83330"/>
</svg>
